ply
format ascii 1.0
comment File exported by Rhinoceros Version 4.0
element vertex 519
property float x
property float y
property float z
property float nx
property float ny
property float nz
property uchar red
property uchar green
property uchar blue
element face 434
property list uchar uint vertex_index
element material 1
property uchar ambient_red
property uchar ambient_green
property uchar ambient_blue
property uchar ambient_alpha
property uchar diffuse_red
property uchar diffuse_green
property uchar diffuse_blue
property uchar diffuse_alpha
property uchar emissive_red
property uchar emissive_green
property uchar emissive_blue
property uchar emissive_alpha
property uchar specular_red
property uchar specular_green
property uchar specular_blue
property uchar specular_alpha
property double shine
property double transparency
end_header
0.500856 0.275006 0.000000 0.000000 0.000000 -1.000000 4 0 0
0.505140 0.305476 0.000000 0.000000 0.000000 -1.000000 4 0 0
0.508335 0.336697 0.000000 0.000000 0.000000 -1.000000 4 0 0
0.610156 0.272371 0.000000 0.000000 0.000000 -1.000000 4 0 0
0.609036 0.303733 0.000000 0.000000 0.000000 -1.000000 13 0 0
0.606487 0.335383 0.000000 0.000000 0.000000 -1.000000 74 0 2
0.650722 0.271283 0.000000 0.000000 0.000000 -1.000000 10 0 0
0.646201 0.303047 0.000000 0.000000 0.000000 -1.000000 26 0 0
0.639461 0.335072 0.000000 0.000000 0.000000 -1.000000 101 0 3
0.535340 0.274080 0.000000 0.000000 0.000000 -1.000000 4 0 0
0.542047 0.336000 0.000000 0.000000 0.000000 -1.000000 4 0 0
0.538856 0.305109 0.000000 0.000000 0.000000 -1.000000 4 0 0
0.351919 0.336939 0.000000 0.000000 0.000000 -1.000000 6 0 0
0.344609 0.305617 0.000000 0.000000 0.000000 -1.000000 6 0 0
0.336872 0.273960 0.000000 0.000000 0.000000 -1.000000 4 0 0
0.438180 0.275528 0.000000 0.000000 0.000000 -1.000000 4 0 0
0.443959 0.306269 0.000000 0.000000 0.000000 -1.000000 4 0 0
0.449575 0.337709 0.000000 0.000000 0.000000 -1.000000 4 0 0
0.252641 0.340889 0.000000 0.000000 0.000000 -1.000000 225 0 7
0.241444 0.307230 0.000000 0.000000 0.000000 -1.000000 134 0 4
0.229693 0.273139 0.000000 0.000000 0.000000 -1.000000 92 0 3
0.207573 0.202857 0.000000 0.000000 0.000000 -1.000000 202 0 6
0.321101 0.210027 0.000000 0.000000 0.000000 -1.000000 4 0 0
0.425141 0.214851 0.000000 0.000000 0.000000 -1.000000 5 0 0
0.490080 0.215497 0.000000 0.000000 0.000000 -1.000000 5 0 0
0.526430 0.215042 0.000000 0.000000 0.000000 -1.000000 7 0 0
0.607313 0.212821 0.000000 0.000000 0.000000 -1.000000 8 0 0
0.651801 0.210666 0.000000 0.000000 0.000000 -1.000000 24 0 0
0.217898 0.238038 0.000000 0.000000 0.000000 -1.000000 118 0 3
0.328948 0.242067 0.000000 0.000000 0.000000 -1.000000 4 0 0
0.431788 0.244743 0.000000 0.000000 0.000000 -1.000000 4 0 0
0.495726 0.244618 0.000000 0.000000 0.000000 -1.000000 4 0 0
0.531331 0.244251 0.000000 0.000000 0.000000 -1.000000 4 0 0
0.609592 0.241990 0.000000 0.000000 0.000000 -1.000000 4 0 0
0.652515 0.240244 0.000000 0.000000 0.000000 -1.000000 10 0 0
0.191956 0.131670 0.000000 0.000000 0.000000 -1.000000 255 0 8
0.305889 0.145860 0.000000 0.000000 0.000000 -1.000000 126 0 4
0.410429 0.156519 0.000000 0.000000 0.000000 -1.000000 85 0 2
0.475873 0.159753 0.000000 0.000000 0.000000 -1.000000 105 0 3
0.513432 0.160445 0.000000 0.000000 0.000000 -1.000000 125 0 4
0.597504 0.159305 0.000000 0.000000 0.000000 -1.000000 140 0 4
0.644689 0.156983 0.000000 0.000000 0.000000 -1.000000 177 0 5
0.745018 0.149731 0.000000 0.000000 0.000000 -1.000000 255 0 8
0.747955 0.202656 0.000000 0.000000 0.000000 -1.000000 255 0 8
0.747142 0.234290 0.000000 0.000000 0.000000 -1.000000 254 0 8
0.741911 0.269515 0.000000 0.000000 0.000000 -1.000000 254 0 8
0.728453 0.302925 0.000000 0.000000 0.000000 -1.000000 251 0 8
0.706854 0.334029 0.000000 0.000000 0.000000 -1.000000 249 0 8
0.796055 0.145982 0.000000 0.000000 0.000000 -1.000000 254 0 8
0.798637 0.194522 0.000000 0.000000 0.000000 -1.000000 254 0 8
0.799902 0.227439 0.000000 0.000000 0.000000 -1.000000 254 0 8
0.797645 0.271386 0.000000 0.000000 0.000000 -1.000000 250 0 8
0.778786 0.305616 0.000000 0.000000 0.000000 -1.000000 253 0 8
0.748884 0.334565 0.000000 0.000000 0.000000 -1.000000 254 0 8
0.694491 0.153597 0.000000 0.000000 0.000000 -1.000000 253 0 8
0.698833 0.207546 0.000000 0.000000 0.000000 -1.000000 165 0 5
0.698156 0.237809 0.000000 0.000000 0.000000 -1.000000 115 0 3
0.694206 0.270208 0.000000 0.000000 0.000000 -1.000000 99 0 3
0.685326 0.302496 0.000000 0.000000 0.000000 -1.000000 116 0 3
0.672284 0.334377 0.000000 0.000000 0.000000 -1.000000 174 0 5
0.198795 0.167101 0.000000 0.000000 0.000000 -1.000000 254 0 8
0.313423 0.177912 0.000000 0.000000 0.000000 -1.000000 17 0 0
0.418026 0.185283 0.000000 0.000000 0.000000 -1.000000 16 0 0
0.483577 0.187084 0.000000 0.000000 0.000000 -1.000000 21 0 0
0.520608 0.187217 0.000000 0.000000 0.000000 -1.000000 31 0 1
0.603367 0.185292 0.000000 0.000000 0.000000 -1.000000 39 0 1
0.649159 0.182982 0.000000 0.000000 0.000000 -1.000000 78 0 2
0.697359 0.179640 0.000000 0.000000 0.000000 -1.000000 224 0 7
0.747166 0.175131 0.000000 0.000000 0.000000 -1.000000 255 0 8
0.798239 0.168874 0.000000 0.000000 0.000000 -1.000000 254 0 8
0.204262 0.344771 0.000000 0.000000 0.000000 -1.000000 255 0 8
0.188789 0.314920 0.000000 0.000000 0.000000 -1.000000 255 0 8
0.160166 0.273407 0.000000 0.000000 0.000000 -1.000000 255 0 8
0.137753 0.237743 0.000000 0.000000 0.000000 -1.000000 255 0 9
0.120092 0.198679 0.000000 0.000000 0.000000 -1.000000 255 4 12
0.112009 0.159528 0.000000 0.000000 0.000000 -1.000000 255 17 25
0.109020 0.121184 0.000000 0.000000 0.000000 -1.000000 255 47 54
0.298351 0.114107 0.000000 0.000000 0.000000 -1.000000 249 0 8
0.402454 0.128487 0.000000 0.000000 0.000000 -1.000000 202 0 6
0.465841 0.133276 0.000000 0.000000 0.000000 -1.000000 230 0 7
0.504418 0.134745 0.000000 0.000000 0.000000 -1.000000 230 0 7
0.588713 0.134982 0.000000 0.000000 0.000000 -1.000000 240 0 8
0.638112 0.132385 0.000000 0.000000 0.000000 -1.000000 247 1 9
0.691106 0.128432 0.000000 0.000000 0.000000 -1.000000 254 0 8
0.742299 0.124525 0.000000 0.000000 0.000000 -1.000000 255 0 8
0.792397 0.121450 0.000000 0.000000 0.000000 -1.000000 254 0 8
0.113210 0.090755 0.000000 0.000000 0.000000 -1.000000 255 71 77
0.186381 0.096046 0.000000 0.000000 0.000000 -1.000000 255 0 8
0.233926 0.341670 0.000000 0.000000 0.000000 -1.000000 250 0 8
0.221769 0.308250 0.000000 0.000000 0.000000 -1.000000 210 0 7
0.207414 0.273064 0.000000 0.000000 0.000000 -1.000000 196 0 6
0.193863 0.237720 0.000000 0.000000 0.000000 -1.000000 229 0 7
0.181951 0.201364 0.000000 0.000000 0.000000 -1.000000 254 0 8
0.173213 0.165312 0.000000 0.000000 0.000000 -1.000000 255 0 8
0.167125 0.129464 0.000000 0.000000 0.000000 -1.000000 255 0 8
0.163237 0.094825 0.000000 0.000000 0.000000 -1.000000 255 0 9
0.140714 0.093278 0.000000 0.000000 0.000000 -1.000000 255 9 17
0.140436 0.126716 0.000000 0.000000 0.000000 -1.000000 255 1 9
0.144758 0.162793 0.000000 0.000000 0.000000 -1.000000 255 0 8
0.153704 0.200211 0.000000 0.000000 0.000000 -1.000000 255 0 8
0.167431 0.237189 0.000000 0.000000 0.000000 -1.000000 255 0 8
0.184838 0.273672 0.000000 0.000000 0.000000 -1.000000 253 0 8
0.203402 0.309862 0.000000 0.000000 0.000000 -1.000000 251 0 8
0.218490 0.342997 0.000000 0.000000 0.000000 -1.000000 254 0 8
0.209122 0.098853 0.000000 0.000000 0.000000 -1.000000 255 0 8
0.215612 0.134010 0.000000 0.000000 0.000000 -1.000000 255 0 8
0.222898 0.169184 0.000000 0.000000 0.000000 -1.000000 215 0 7
0.231271 0.204039 0.000000 0.000000 0.000000 -1.000000 93 0 3
0.240966 0.238879 0.000000 0.000000 0.000000 -1.000000 34 0 1
0.251264 0.272985 0.000000 0.000000 0.000000 -1.000000 29 0 1
0.261976 0.306844 0.000000 0.000000 0.000000 -1.000000 70 0 2
0.272030 0.339954 0.000000 0.000000 0.000000 -1.000000 177 0 5
0.232591 0.102418 0.000000 0.000000 0.000000 -1.000000 255 0 8
0.238888 0.136876 0.000000 0.000000 0.000000 -1.000000 248 0 8
0.246020 0.171216 0.000000 0.000000 0.000000 -1.000000 128 0 4
0.254183 0.205578 0.000000 0.000000 0.000000 -1.000000 27 0 0
0.263134 0.239505 0.000000 0.000000 0.000000 -1.000000 8 0 0
0.272827 0.273227 0.000000 0.000000 0.000000 -1.000000 9 0 0
0.282706 0.306320 0.000000 0.000000 0.000000 -1.000000 34 0 1
0.292720 0.339136 0.000000 0.000000 0.000000 -1.000000 101 0 3
0.255761 0.106446 0.000000 0.000000 0.000000 -1.000000 255 0 8
0.261663 0.139883 0.000000 0.000000 0.000000 -1.000000 210 0 7
0.268650 0.173508 0.000000 0.000000 0.000000 -1.000000 59 0 2
0.276471 0.207010 0.000000 0.000000 0.000000 -1.000000 8 0 0
0.285039 0.240386 0.000000 0.000000 0.000000 -1.000000 4 0 0
0.294073 0.273346 0.000000 0.000000 0.000000 -1.000000 5 0 0
0.303530 0.306027 0.000000 0.000000 0.000000 -1.000000 17 0 0
0.313356 0.338258 0.000000 0.000000 0.000000 -1.000000 42 0 1
0.277655 0.110463 0.000000 0.000000 0.000000 -1.000000 254 0 8
0.283885 0.142973 0.000000 0.000000 0.000000 -1.000000 159 0 5
0.290951 0.175735 0.000000 0.000000 0.000000 -1.000000 29 0 1
0.298646 0.208556 0.000000 0.000000 0.000000 -1.000000 5 0 0
0.306806 0.241197 0.000000 0.000000 0.000000 -1.000000 4 0 0
0.315323 0.273643 0.000000 0.000000 0.000000 -1.000000 4 0 0
0.324043 0.305726 0.000000 0.000000 0.000000 -1.000000 9 0 0
0.333085 0.337548 0.000000 0.000000 0.000000 -1.000000 16 0 0
0.319817 0.117229 0.000000 0.000000 0.000000 -1.000000 244 0 8
0.328749 0.148543 0.000000 0.000000 0.000000 -1.000000 108 0 3
0.336760 0.179960 0.000000 0.000000 0.000000 -1.000000 13 0 0
0.344460 0.211420 0.000000 0.000000 0.000000 -1.000000 4 0 0
0.352045 0.242937 0.000000 0.000000 0.000000 -1.000000 4 0 0
0.359383 0.274369 0.000000 0.000000 0.000000 -1.000000 4 0 0
0.366211 0.305655 0.000000 0.000000 0.000000 -1.000000 4 0 0
0.371723 0.336526 0.000000 0.000000 0.000000 -1.000000 4 0 0
0.344193 0.120619 0.000000 0.000000 0.000000 -1.000000 243 0 8
0.353506 0.151228 0.000000 0.000000 0.000000 -1.000000 96 0 3
0.361709 0.181884 0.000000 0.000000 0.000000 -1.000000 13 0 0
0.369342 0.212764 0.000000 0.000000 0.000000 -1.000000 4 0 0
0.376625 0.243701 0.000000 0.000000 0.000000 -1.000000 4 0 0
0.383604 0.274890 0.000000 0.000000 0.000000 -1.000000 4 0 0
0.389787 0.305997 0.000000 0.000000 0.000000 -1.000000 4 0 0
0.394800 0.337189 0.000000 0.000000 0.000000 -1.000000 4 0 0
0.370917 0.124295 0.000000 0.000000 0.000000 -1.000000 229 0 7
0.380581 0.153883 0.000000 0.000000 0.000000 -1.000000 88 0 2
0.388700 0.183757 0.000000 0.000000 0.000000 -1.000000 14 0 0
0.396118 0.213843 0.000000 0.000000 0.000000 -1.000000 4 0 0
0.403181 0.244469 0.000000 0.000000 0.000000 -1.000000 4 0 0
0.409724 0.275175 0.000000 0.000000 0.000000 -1.000000 4 0 0
0.415661 0.306360 0.000000 0.000000 0.000000 -1.000000 4 0 0
0.419938 0.337498 0.000000 0.000000 0.000000 -1.000000 4 0 0
0.433390 0.131231 0.000000 0.000000 0.000000 -1.000000 207 0 6
0.441976 0.158417 0.000000 0.000000 0.000000 -1.000000 92 0 3
0.449562 0.186509 0.000000 0.000000 0.000000 -1.000000 18 0 0
0.456349 0.215248 0.000000 0.000000 0.000000 -1.000000 5 0 0
0.462678 0.245071 0.000000 0.000000 0.000000 -1.000000 4 0 0
0.468415 0.275133 0.000000 0.000000 0.000000 -1.000000 4 0 0
0.473811 0.306228 0.000000 0.000000 0.000000 -1.000000 4 0 0
0.478505 0.337135 0.000000 0.000000 0.000000 -1.000000 4 0 0
0.545911 0.135634 0.000000 0.000000 0.000000 -1.000000 247 0 8
0.554079 0.160423 0.000000 0.000000 0.000000 -1.000000 152 0 5
0.560557 0.186626 0.000000 0.000000 0.000000 -1.000000 39 0 1
0.565541 0.214295 0.000000 0.000000 0.000000 -1.000000 8 0 0
0.569236 0.243182 0.000000 0.000000 0.000000 -1.000000 4 0 0
0.571865 0.273472 0.000000 0.000000 0.000000 -1.000000 5 0 0
0.573531 0.304275 0.000000 0.000000 0.000000 -1.000000 11 0 0
0.575109 0.335755 0.000000 0.000000 0.000000 -1.000000 34 0 1
0.696950 0.363174 0.000000 0.000000 0.000000 -1.000000 246 0 8
0.677614 0.364496 0.000000 0.000000 0.000000 -1.000000 238 0 7
0.656921 0.365945 0.000000 0.000000 0.000000 -1.000000 218 0 7
0.632763 0.367665 0.000000 0.000000 0.000000 -1.000000 193 0 7
0.602446 0.367328 0.000000 0.000000 0.000000 -1.000000 157 4 9
0.578518 0.367170 0.000000 0.000000 0.000000 -1.000000 70 2 4
0.546423 0.367062 0.000000 0.000000 0.000000 -1.000000 5 0 0
0.508048 0.367636 0.000000 0.000000 0.000000 -1.000000 4 0 0
0.483029 0.368440 0.000000 0.000000 0.000000 -1.000000 4 0 0
0.456224 0.369395 0.000000 0.000000 0.000000 -1.000000 4 0 0
0.420476 0.368921 0.000000 0.000000 0.000000 -1.000000 4 0 0
0.398095 0.368617 0.000000 0.000000 0.000000 -1.000000 4 0 0
0.374466 0.366279 0.000000 0.000000 0.000000 -1.000000 4 0 0
0.358538 0.368121 0.000000 0.000000 0.000000 -1.000000 5 0 0
0.343192 0.369124 0.000000 0.000000 0.000000 -1.000000 14 0 0
0.324237 0.370335 0.000000 0.000000 0.000000 -1.000000 46 0 1
0.302672 0.371673 0.000000 0.000000 0.000000 -1.000000 127 0 4
0.280933 0.373013 0.000000 0.000000 0.000000 -1.000000 222 0 7
0.262758 0.374112 0.000000 0.000000 0.000000 -1.000000 253 0 8
0.242992 0.374760 0.000000 0.000000 0.000000 -1.000000 255 0 8
0.231837 0.375111 0.000000 0.000000 0.000000 -1.000000 255 0 8
0.215178 0.375090 0.000000 0.000000 0.000000 -1.000000 255 0 8
0.440926 0.571365 0.000000 0.000000 0.000000 -1.000000 9 0 0
0.429416 0.503749 0.000000 0.000000 0.000000 -1.000000 4 0 0
0.583433 0.569732 0.000000 0.000000 0.000000 -1.000000 254 0 8
0.575598 0.500788 0.000000 0.000000 0.000000 -1.000000 211 0 7
0.296139 0.577268 0.000000 0.000000 0.000000 -1.000000 243 0 8
0.285825 0.506959 0.000000 0.000000 0.000000 -1.000000 219 0 7
0.571782 0.455168 0.000000 0.000000 0.000000 -1.000000 234 0 7
0.428983 0.458391 0.000000 0.000000 0.000000 -1.000000 4 0 0
0.283773 0.460295 0.000000 0.000000 0.000000 -1.000000 249 0 8
0.291971 0.553789 0.000000 0.000000 0.000000 -1.000000 225 0 7
0.435276 0.548956 0.000000 0.000000 0.000000 -1.000000 4 0 0
0.580622 0.546682 0.000000 0.000000 0.000000 -1.000000 246 0 8
0.183561 0.459944 0.000000 0.000000 0.000000 -1.000000 255 0 8
0.186678 0.507157 0.000000 0.000000 0.000000 -1.000000 255 0 8
0.199551 0.556478 0.000000 0.000000 0.000000 -1.000000 255 0 8
0.207616 0.580159 0.000000 0.000000 0.000000 -1.000000 255 0 8
0.646539 0.452046 0.000000 0.000000 0.000000 -1.000000 255 0 8
0.644455 0.498745 0.000000 0.000000 0.000000 -1.000000 255 0 8
0.651951 0.545130 0.000000 0.000000 0.000000 -1.000000 255 0 8
0.659919 0.568264 0.000000 0.000000 0.000000 -1.000000 255 0 8
0.674617 0.450447 0.000000 0.000000 0.000000 -1.000000 255 0 8
0.679348 0.497770 0.000000 0.000000 0.000000 -1.000000 255 0 8
0.685701 0.544336 0.000000 0.000000 0.000000 -1.000000 255 0 8
0.690160 0.567741 0.000000 0.000000 0.000000 -1.000000 255 0 8
0.666299 0.451235 0.000000 0.000000 0.000000 -1.000000 255 0 8
0.668943 0.498001 0.000000 0.000000 0.000000 -1.000000 255 0 8
0.675661 0.544568 0.000000 0.000000 0.000000 -1.000000 255 0 8
0.680496 0.567831 0.000000 0.000000 0.000000 -1.000000 255 0 8
0.232749 0.460758 0.000000 0.000000 0.000000 -1.000000 255 0 8
0.238272 0.507617 0.000000 0.000000 0.000000 -1.000000 255 0 8
0.246505 0.555113 0.000000 0.000000 0.000000 -1.000000 255 0 8
0.251179 0.578860 0.000000 0.000000 0.000000 -1.000000 255 0 8
0.258600 0.460609 0.000000 0.000000 0.000000 -1.000000 255 0 8
0.262461 0.507341 0.000000 0.000000 0.000000 -1.000000 254 0 8
0.269486 0.554451 0.000000 0.000000 0.000000 -1.000000 254 0 8
0.273844 0.578026 0.000000 0.000000 0.000000 -1.000000 255 0 8
0.327124 0.459867 0.000000 0.000000 0.000000 -1.000000 108 0 3
0.329887 0.506055 0.000000 0.000000 0.000000 -1.000000 41 0 1
0.335089 0.552336 0.000000 0.000000 0.000000 -1.000000 60 0 2
0.338340 0.575516 0.000000 0.000000 0.000000 -1.000000 109 0 3
0.348301 0.459559 0.000000 0.000000 0.000000 -1.000000 47 0 1
0.350894 0.505563 0.000000 0.000000 0.000000 -1.000000 11 0 0
0.356072 0.551561 0.000000 0.000000 0.000000 -1.000000 20 0 0
0.359621 0.574512 0.000000 0.000000 0.000000 -1.000000 54 0 1
0.368229 0.459254 0.000000 0.000000 0.000000 -1.000000 18 0 0
0.371278 0.505075 0.000000 0.000000 0.000000 -1.000000 4 0 0
0.376390 0.550831 0.000000 0.000000 0.000000 -1.000000 7 0 0
0.379698 0.573647 0.000000 0.000000 0.000000 -1.000000 26 0 0
0.387328 0.458959 0.000000 0.000000 0.000000 -1.000000 8 0 0
0.391147 0.504603 0.000000 0.000000 0.000000 -1.000000 4 0 0
0.396204 0.550149 0.000000 0.000000 0.000000 -1.000000 5 0 0
0.398959 0.572865 0.000000 0.000000 0.000000 -1.000000 14 0 0
0.407717 0.458664 0.000000 0.000000 0.000000 -1.000000 5 0 0
0.410614 0.504158 0.000000 0.000000 0.000000 -1.000000 4 0 0
0.415993 0.549509 0.000000 0.000000 0.000000 -1.000000 4 0 0
0.419521 0.572072 0.000000 0.000000 0.000000 -1.000000 10 0 0
0.305777 0.460135 0.000000 0.000000 0.000000 -1.000000 192 0 6
0.308240 0.506526 0.000000 0.000000 0.000000 -1.000000 120 0 4
0.313733 0.553082 0.000000 0.000000 0.000000 -1.000000 139 0 4
0.317196 0.576422 0.000000 0.000000 0.000000 -1.000000 185 0 6
0.208203 0.460648 0.000000 0.000000 0.000000 -1.000000 255 0 8
0.213238 0.507674 0.000000 0.000000 0.000000 -1.000000 255 0 8
0.223332 0.555770 0.000000 0.000000 0.000000 -1.000000 255 0 8
0.229577 0.579603 0.000000 0.000000 0.000000 -1.000000 255 0 8
0.474717 0.457385 0.000000 0.000000 0.000000 -1.000000 6 0 0
0.481812 0.502695 0.000000 0.000000 0.000000 -1.000000 4 0 0
0.485908 0.548018 0.000000 0.000000 0.000000 -1.000000 6 0 0
0.486551 0.570663 0.000000 0.000000 0.000000 -1.000000 25 0 0
0.629116 0.452882 0.000000 0.000000 0.000000 -1.000000 255 0 8
0.629215 0.499232 0.000000 0.000000 0.000000 -1.000000 255 0 8
0.636041 0.545482 0.000000 0.000000 0.000000 -1.000000 255 0 8
0.642009 0.568564 0.000000 0.000000 0.000000 -1.000000 255 0 8
0.610505 0.453653 0.000000 0.000000 0.000000 -1.000000 255 0 8
0.612307 0.499752 0.000000 0.000000 0.000000 -1.000000 255 0 8
0.618404 0.545869 0.000000 0.000000 0.000000 -1.000000 255 0 8
0.622961 0.568917 0.000000 0.000000 0.000000 -1.000000 255 0 8
0.591459 0.454403 0.000000 0.000000 0.000000 -1.000000 254 0 8
0.594296 0.500282 0.000000 0.000000 0.000000 -1.000000 253 0 8
0.599813 0.546277 0.000000 0.000000 0.000000 -1.000000 255 0 8
0.603503 0.569294 0.000000 0.000000 0.000000 -1.000000 255 0 8
0.551980 0.455709 0.000000 0.000000 0.000000 -1.000000 159 0 5
0.556580 0.501243 0.000000 0.000000 0.000000 -1.000000 119 0 4
0.561280 0.547018 0.000000 0.000000 0.000000 -1.000000 186 0 6
0.563554 0.569990 0.000000 0.000000 0.000000 -1.000000 235 0 7
0.532406 0.456164 0.000000 0.000000 0.000000 -1.000000 78 0 2
0.537513 0.501647 0.000000 0.000000 0.000000 -1.000000 43 0 1
0.542025 0.547300 0.000000 0.000000 0.000000 -1.000000 100 0 3
0.544008 0.570184 0.000000 0.000000 0.000000 -1.000000 172 0 5
0.513129 0.456579 0.000000 0.000000 0.000000 -1.000000 31 0 1
0.518587 0.502014 0.000000 0.000000 0.000000 -1.000000 12 0 0
0.522972 0.547550 0.000000 0.000000 0.000000 -1.000000 41 0 1
0.524794 0.570349 0.000000 0.000000 0.000000 -1.000000 102 0 3
0.493643 0.456986 0.000000 0.000000 0.000000 -1.000000 12 0 0
0.499946 0.502359 0.000000 0.000000 0.000000 -1.000000 5 0 0
0.504141 0.547784 0.000000 0.000000 0.000000 -1.000000 14 0 0
0.505391 0.570506 0.000000 0.000000 0.000000 -1.000000 52 0 1
0.470055 0.570829 0.000000 0.000000 0.000000 -1.000000 15 0 0
0.468761 0.548267 0.000000 0.000000 0.000000 -1.000000 4 0 0
0.464311 0.503031 0.000000 0.000000 0.000000 -1.000000 4 0 0
0.458142 0.457778 0.000000 0.000000 0.000000 -1.000000 5 0 0
0.456056 0.571034 0.000000 0.000000 0.000000 -1.000000 11 0 0
0.452399 0.548563 0.000000 0.000000 0.000000 -1.000000 4 0 0
0.447119 0.503377 0.000000 0.000000 0.000000 -1.000000 4 0 0
0.444105 0.458096 0.000000 0.000000 0.000000 -1.000000 4 0 0
0.657334 0.451630 0.000000 0.000000 0.000000 -1.000000 255 0 8
0.657544 0.498340 0.000000 0.000000 0.000000 -1.000000 255 0 8
0.664731 0.544831 0.000000 0.000000 0.000000 -1.000000 255 0 8
0.671030 0.568026 0.000000 0.000000 0.000000 -1.000000 255 0 8
0.607810 0.592257 0.000000 0.000000 0.000000 -1.000000 255 0 8
0.586052 0.592965 0.000000 0.000000 0.000000 -1.000000 255 0 8
0.627926 0.591942 0.000000 0.000000 0.000000 -1.000000 255 0 8
0.649120 0.591602 0.000000 0.000000 0.000000 -1.000000 255 0 8
0.674682 0.591334 0.000000 0.000000 0.000000 -1.000000 255 0 8
0.678976 0.591187 0.000000 0.000000 0.000000 -1.000000 255 0 8
0.685133 0.590988 0.000000 0.000000 0.000000 -1.000000 255 0 8
0.690119 0.590858 0.000000 0.000000 0.000000 -1.000000 255 0 8
0.670900 0.428035 0.000000 0.000000 0.000000 -1.000000 255 0 8
0.666083 0.428247 0.000000 0.000000 0.000000 -1.000000 255 0 8
0.660002 0.428225 0.000000 0.000000 0.000000 -1.000000 255 0 8
0.655760 0.428216 0.000000 0.000000 0.000000 -1.000000 255 0 8
0.631121 0.429762 0.000000 0.000000 0.000000 -1.000000 255 0 8
0.610532 0.430636 0.000000 0.000000 0.000000 -1.000000 255 0 8
0.590991 0.431468 0.000000 0.000000 0.000000 -1.000000 255 0 8
0.570132 0.432636 0.000000 0.000000 0.000000 -1.000000 251 0 8
0.549443 0.433068 0.000000 0.000000 0.000000 -1.000000 210 0 7
0.529473 0.433487 0.000000 0.000000 0.000000 -1.000000 138 1 5
0.510503 0.433884 0.000000 0.000000 0.000000 -1.000000 81 4 7
0.489635 0.434316 0.000000 0.000000 0.000000 -1.000000 43 6 7
0.468272 0.434746 0.000000 0.000000 0.000000 -1.000000 25 4 5
0.452120 0.435237 0.000000 0.000000 0.000000 -1.000000 19 4 4
0.444044 0.435483 0.000000 0.000000 0.000000 -1.000000 18 3 4
0.435968 0.435734 0.000000 0.000000 0.000000 -1.000000 17 3 4
0.405633 0.435886 0.000000 0.000000 0.000000 -1.000000 25 5 6
0.384147 0.436134 0.000000 0.000000 0.000000 -1.000000 44 8 9
0.367798 0.436331 0.000000 0.000000 0.000000 -1.000000 71 10 12
0.348629 0.436557 0.000000 0.000000 0.000000 -1.000000 116 7 11
0.326218 0.436829 0.000000 0.000000 0.000000 -1.000000 182 2 8
0.305638 0.437073 0.000000 0.000000 0.000000 -1.000000 236 0 8
0.286641 0.436820 0.000000 0.000000 0.000000 -1.000000 254 0 8
0.257753 0.437470 0.000000 0.000000 0.000000 -1.000000 255 0 8
0.228830 0.437697 0.000000 0.000000 0.000000 -1.000000 255 0 8
0.206196 0.437852 0.000000 0.000000 0.000000 -1.000000 255 0 8
0.180935 0.438019 0.000000 0.000000 0.000000 -1.000000 255 0 8
0.215405 0.604662 0.000000 0.000000 0.000000 -1.000000 255 0 8
0.236179 0.603623 0.000000 0.000000 0.000000 -1.000000 255 0 8
0.254789 0.602698 0.000000 0.000000 0.000000 -1.000000 255 0 8
0.278573 0.601524 0.000000 0.000000 0.000000 -1.000000 255 0 8
0.301546 0.600838 0.000000 0.000000 0.000000 -1.000000 254 0 8
0.320571 0.599820 0.000000 0.000000 0.000000 -1.000000 235 0 7
0.341452 0.598796 0.000000 0.000000 0.000000 -1.000000 186 0 6
0.364375 0.597322 0.000000 0.000000 0.000000 -1.000000 130 0 4
0.383823 0.596384 0.000000 0.000000 0.000000 -1.000000 95 0 3
0.400410 0.595594 0.000000 0.000000 0.000000 -1.000000 74 0 2
0.422210 0.594548 0.000000 0.000000 0.000000 -1.000000 59 0 2
0.452847 0.593400 0.000000 0.000000 0.000000 -1.000000 62 0 2
0.460848 0.593379 0.000000 0.000000 0.000000 -1.000000 68 0 3
0.468849 0.593354 0.000000 0.000000 0.000000 -1.000000 76 1 3
0.484851 0.593300 0.000000 0.000000 0.000000 -1.000000 100 1 4
0.506076 0.593228 0.000000 0.000000 0.000000 -1.000000 143 1 6
0.526809 0.593160 0.000000 0.000000 0.000000 -1.000000 196 1 7
0.545655 0.593098 0.000000 0.000000 0.000000 -1.000000 238 0 8
0.565497 0.593030 0.000000 0.000000 0.000000 -1.000000 254 0 8
0.682003 0.520977 0.000000 0.000000 0.000000 -1.000000 255 0 8
0.671722 0.521287 0.000000 0.000000 0.000000 -1.000000 255 0 8
0.660278 0.521599 0.000000 0.000000 0.000000 -1.000000 255 0 8
0.647121 0.521960 0.000000 0.000000 0.000000 -1.000000 255 0 8
0.631794 0.522367 0.000000 0.000000 0.000000 -1.000000 255 0 8
0.614807 0.522813 0.000000 0.000000 0.000000 -1.000000 255 0 8
0.596719 0.523267 0.000000 0.000000 0.000000 -1.000000 254 0 8
0.577965 0.523709 0.000000 0.000000 0.000000 -1.000000 225 0 7
0.558916 0.524104 0.000000 0.000000 0.000000 -1.000000 140 0 4
0.539846 0.524454 0.000000 0.000000 0.000000 -1.000000 58 0 1
0.520925 0.524770 0.000000 0.000000 0.000000 -1.000000 18 0 0
0.502298 0.525067 0.000000 0.000000 0.000000 -1.000000 6 0 0
0.484175 0.525360 0.000000 0.000000 0.000000 -1.000000 4 0 0
0.466687 0.525663 0.000000 0.000000 0.000000 -1.000000 4 0 0
0.449498 0.525998 0.000000 0.000000 0.000000 -1.000000 4 0 0
0.431790 0.526391 0.000000 0.000000 0.000000 -1.000000 4 0 0
0.412968 0.526862 0.000000 0.000000 0.000000 -1.000000 4 0 0
0.393476 0.527395 0.000000 0.000000 0.000000 -1.000000 4 0 0
0.373583 0.527966 0.000000 0.000000 0.000000 -1.000000 4 0 0
0.353190 0.528569 0.000000 0.000000 0.000000 -1.000000 11 0 0
0.332211 0.529186 0.000000 0.000000 0.000000 -1.000000 41 0 1
0.310677 0.529787 0.000000 0.000000 0.000000 -1.000000 117 0 3
0.288524 0.530353 0.000000 0.000000 0.000000 -1.000000 215 0 7
0.265624 0.530880 0.000000 0.000000 0.000000 -1.000000 254 0 8
0.242024 0.531373 0.000000 0.000000 0.000000 -1.000000 255 0 8
0.217697 0.531885 0.000000 0.000000 0.000000 -1.000000 255 0 8
0.192191 0.532725 0.000000 0.000000 0.000000 -1.000000 255 0 8
0.676912 0.474246 0.000000 0.000000 0.000000 -1.000000 255 0 8
0.667163 0.474624 0.000000 0.000000 0.000000 -1.000000 255 0 8
0.656496 0.475011 0.000000 0.000000 0.000000 -1.000000 255 0 8
0.643948 0.475467 0.000000 0.000000 0.000000 -1.000000 255 0 8
0.628298 0.476066 0.000000 0.000000 0.000000 -1.000000 255 0 8
0.610918 0.476698 0.000000 0.000000 0.000000 -1.000000 255 0 8
0.592556 0.477326 0.000000 0.000000 0.000000 -1.000000 253 0 8
0.573557 0.477929 0.000000 0.000000 0.000000 -1.000000 215 0 7
0.554289 0.478439 0.000000 0.000000 0.000000 -1.000000 125 0 4
0.535043 0.478882 0.000000 0.000000 0.000000 -1.000000 49 0 1
0.515962 0.479284 0.000000 0.000000 0.000000 -1.000000 15 0 0
0.497091 0.479665 0.000000 0.000000 0.000000 -1.000000 5 0 0
0.478812 0.480034 0.000000 0.000000 0.000000 -1.000000 4 0 0
0.461629 0.480394 0.000000 0.000000 0.000000 -1.000000 4 0 0
0.445248 0.480734 0.000000 0.000000 0.000000 -1.000000 4 0 0
0.428143 0.481073 0.000000 0.000000 0.000000 -1.000000 4 0 0
0.408924 0.481420 0.000000 0.000000 0.000000 -1.000000 4 0 0
0.389222 0.481787 0.000000 0.000000 0.000000 -1.000000 4 0 0
0.369487 0.482168 0.000000 0.000000 0.000000 -1.000000 6 0 0
0.349221 0.482559 0.000000 0.000000 0.000000 -1.000000 18 0 0
0.328201 0.482946 0.000000 0.000000 0.000000 -1.000000 61 0 2
0.306573 0.483306 0.000000 0.000000 0.000000 -1.000000 146 0 4
0.284074 0.483617 0.000000 0.000000 0.000000 -1.000000 234 0 7
0.260124 0.483912 0.000000 0.000000 0.000000 -1.000000 255 0 8
0.235363 0.484080 0.000000 0.000000 0.000000 -1.000000 255 0 8
0.210306 0.484036 0.000000 0.000000 0.000000 -1.000000 255 0 8
0.184420 0.483744 0.000000 0.000000 0.000000 -1.000000 255 0 8
0.450095 0.674818 -0.000011 0.000000 0.000000 -1.000000 216 0 7
0.436249 0.676791 -0.000011 0.000232 -0.000096 -1.000000 169 0 5
0.424318 0.676385 -0.000019 0.000232 -0.000096 -1.000000 128 0 4
0.400182 0.675001 -0.000019 0.000000 0.000000 -1.000000 62 0 2
0.352808 0.672381 -0.000019 0.000000 0.000000 -1.000000 22 0 0
0.330412 0.677049 -0.000019 0.000000 0.000000 -1.000000 15 0 0
0.305328 0.676477 -0.000019 0.000000 0.000000 -1.000000 28 0 1
0.250969 0.689671 -0.000019 0.000000 0.000000 -1.000000 123 1 5
0.143247 0.724229 -0.000019 0.000000 0.000000 -1.000000 255 0 8
0.280601 0.682750 -0.000019 0.000000 0.000000 -1.000000 50 0 2
0.266107 0.686184 -0.000019 0.000000 0.000000 -1.000000 78 0 3
0.372400 0.673557 -0.000019 0.000000 0.000000 -1.000000 29 0 1
0.225245 0.698470 -0.000019 0.000000 0.000000 -1.000000 209 1 8
0.208463 0.703980 -0.000019 0.000000 0.000000 -1.000000 246 1 9
0.174476 0.714625 -0.000019 0.000000 0.000000 -1.000000 255 0 8
0.359453 0.756214 -0.000019 0.000000 0.000000 -1.000000 4 0 0
0.362318 0.797550 -0.000019 0.000000 0.000000 -1.000000 4 0 0
0.364253 0.881482 -0.000019 0.000000 0.000000 -1.000000 162 0 5
0.446686 0.749401 -0.000019 0.000033 -0.000042 -1.000000 63 0 2
0.461843 0.790117 -0.000019 0.000000 0.000000 -1.000000 153 0 5
0.487938 0.875687 -0.000019 0.000000 0.000000 -1.000000 255 0 8
0.304351 0.760917 -0.000019 0.000000 0.000000 -1.000000 4 0 0
0.302460 0.802429 -0.000019 0.000000 0.000000 -1.000000 4 0 0
0.295072 0.887523 -0.000019 0.000000 0.000000 -1.000000 149 0 4
0.331608 0.758472 -0.000019 0.000000 0.000000 -1.000000 4 0 0
0.331771 0.799973 -0.000019 0.000000 0.000000 -1.000000 4 0 0
0.328891 0.884710 -0.000019 0.000000 0.000000 -1.000000 128 0 4
0.114447 0.773236 -0.000019 0.000000 0.000000 -1.000000 255 0 8
0.103673 0.804967 -0.000019 0.000000 0.000000 -1.000000 255 0 8
0.090696 0.888106 -0.000019 0.000000 0.000000 -1.000000 255 0 8
0.417517 0.752394 -0.000019 0.000000 0.000000 -1.000000 9 0 0
0.427220 0.793012 -0.000019 0.000000 0.000000 -1.000000 37 0 1
0.440978 0.877021 -0.000019 0.000000 0.000000 -1.000000 255 0 8
0.474355 0.743834 -0.000019 0.000013 -0.000086 -1.000000 181 0 6
0.496697 0.785982 -0.000019 0.000000 0.000000 -1.000000 250 0 8
0.541539 0.874998 -0.000019 0.000000 0.000000 -1.000000 255 0 8
0.229052 0.769605 -0.000019 0.000000 0.000000 -1.000000 110 0 3
0.220798 0.809583 -0.000019 0.000000 0.000000 -1.000000 163 0 5
0.205797 0.892761 -0.000019 0.000000 0.000000 -1.000000 255 0 8
0.128129 0.745899 -0.000019 0.000000 0.000000 -1.000000 255 0 8
0.238430 0.730163 -0.000019 0.000000 0.000000 -1.000000 97 0 3
0.305375 0.719361 -0.000019 0.000000 0.000000 -1.000000 4 0 0
0.330823 0.717397 -0.000019 0.000000 0.000000 -1.000000 4 0 0
0.356048 0.714901 -0.000019 0.000000 0.000000 -1.000000 4 0 0
0.408028 0.713176 -0.000019 0.000000 0.000000 -1.000000 12 0 0
0.433418 0.711630 -0.000019 0.000149 -0.000090 -1.000000 56 0 1
0.454544 0.707699 -0.000011 0.000128 -0.000134 -1.000000 146 0 4
0.555378 0.920848 -0.000019 0.000000 0.000000 -1.000000 255 0 8
0.492191 0.918680 -0.000019 0.000000 0.000000 -1.000000 255 0 8
0.439311 0.919130 -0.000019 0.000000 0.000000 -1.000000 255 0 8
0.362824 0.923426 -0.000019 0.000000 0.000000 -1.000000 254 4 13
0.325460 0.928417 -0.000019 0.000000 0.000000 -1.000000 254 0 8
0.289012 0.931509 -0.000019 0.000000 0.000000 -1.000000 254 0 8
0.198048 0.936102 -0.000019 0.000000 0.000000 -1.000000 255 0 8
0.089773 0.932273 -0.000019 0.000000 0.000000 -1.000000 255 33 40
0.096801 0.843419 -0.000019 0.000000 0.000000 -1.000000 255 0 8
0.213361 0.850505 -0.000019 0.000000 0.000000 -1.000000 235 0 7
0.299371 0.844572 -0.000019 0.000000 0.000000 -1.000000 19 0 0
0.331022 0.841991 -0.000019 0.000000 0.000000 -1.000000 11 0 0
0.364063 0.839318 -0.000019 0.000000 0.000000 -1.000000 18 0 0
0.435923 0.834710 -0.000019 0.000000 0.000000 -1.000000 177 0 5
0.476272 0.832472 -0.000019 0.000000 0.000000 -1.000000 252 0 8
0.520288 0.829735 -0.000019 0.000000 0.000000 -1.000000 255 0 8
0.474326 0.698703 -0.000011 -0.000040 -0.000089 -1.000000 230 0 7
0.499182 0.732444 -0.000019 -0.000040 -0.000089 -1.000000 251 0 8
0.531001 0.780558 -0.000019 0.000000 0.000000 -1.000000 255 0 8
0.565812 0.825801 -0.000019 0.000000 0.000000 -1.000000 255 0 8
0.603623 0.873941 -0.000019 0.000000 0.000000 -1.000000 255 0 8
0.638424 0.923577 -0.000019 0.000000 0.000000 -1.000000 255 0 8
0.280959 0.723036 -0.000019 0.000000 0.000000 -1.000000 7 0 0
0.278297 0.763752 -0.000019 0.000000 0.000000 -1.000000 5 0 0
0.274253 0.805010 -0.000019 0.000000 0.000000 -1.000000 8 0 0
0.269384 0.846905 -0.000019 0.000000 0.000000 -1.000000 55 0 1
0.262932 0.889795 -0.000019 0.000000 0.000000 -1.000000 208 0 6
0.254044 0.933649 -0.000019 0.000000 0.000000 -1.000000 255 0 8
0.259772 0.726431 -0.000019 0.000000 0.000000 -1.000000 28 0 1
0.253519 0.766727 -0.000019 0.000000 0.000000 -1.000000 23 0 0
0.247395 0.807377 -0.000019 0.000000 0.000000 -1.000000 50 0 1
0.240803 0.848978 -0.000019 0.000000 0.000000 -1.000000 144 0 4
0.233708 0.891528 -0.000019 0.000000 0.000000 -1.000000 250 0 8
0.225079 0.935141 -0.000019 0.000000 0.000000 -1.000000 255 0 8
0.381110 0.713944 -0.000019 0.000000 0.000000 -1.000000 4 0 0
0.388006 0.754342 -0.000019 0.000000 0.000000 -1.000000 4 0 0
0.394092 0.795314 -0.000019 0.000000 0.000000 -1.000000 6 0 0
0.398775 0.836927 -0.000019 0.000000 0.000000 -1.000000 62 0 2
0.401425 0.878826 -0.000019 0.000000 0.000000 -1.000000 234 0 7
0.401497 0.920480 -0.000019 0.000000 0.000000 -1.000000 255 5 13
0.214172 0.735062 -0.000019 0.000000 0.000000 -1.000000 214 0 7
0.203298 0.772568 -0.000019 0.000000 0.000000 -1.000000 232 0 7
0.194004 0.811153 -0.000019 0.000000 0.000000 -1.000000 247 0 8
0.185767 0.851404 -0.000019 0.000000 0.000000 -1.000000 255 0 8
0.178644 0.893203 -0.000019 0.000000 0.000000 -1.000000 255 0 8
0.171956 0.936416 -0.000019 0.000000 0.000000 -1.000000 255 1 10
0.189642 0.739347 -0.000019 0.000000 0.000000 -1.000000 254 0 8
0.176396 0.774655 -0.000019 0.000000 0.000000 -1.000000 255 0 8
0.165924 0.811693 -0.000019 0.000000 0.000000 -1.000000 255 0 8
0.157692 0.851042 -0.000019 0.000000 0.000000 -1.000000 255 0 8
0.150810 0.892708 -0.000019 0.000000 0.000000 -1.000000 255 0 8
0.145398 0.935836 -0.000019 0.000000 0.000000 -1.000000 255 6 14
0.159719 0.743785 -0.000019 0.000000 0.000000 -1.000000 255 0 8
0.146602 0.775423 -0.000019 0.000000 0.000000 -1.000000 255 0 8
0.136090 0.810148 -0.000019 0.000000 0.000000 -1.000000 255 0 8
0.128042 0.848846 -0.000019 0.000000 0.000000 -1.000000 255 0 8
0.121959 0.890948 -0.000019 0.000000 0.000000 -1.000000 255 0 8
0.118148 0.934393 -0.000019 0.000000 0.000000 -1.000000 255 11 19
4 5 175 181 180
4 4 174 175 5
4 3 173 174 4
4 173 3 33 172
4 172 33 26 171
4 171 26 65 170
4 170 65 40 169
4 169 40 81 168
4 2 167 184 183
4 1 166 167 2
4 0 165 166 1
4 165 0 31 164
4 164 31 24 163
4 163 24 63 162
4 162 63 38 161
4 161 38 79 160
4 17 159 186 185
4 16 158 159 17
4 15 157 158 16
4 157 15 30 156
4 156 30 23 155
4 155 23 62 154
4 154 62 37 153
4 153 37 78 152
4 159 151 187 186
4 158 150 151 159
4 157 149 150 158
4 149 157 156 148
4 148 156 155 147
4 147 155 154 146
4 146 154 153 145
4 145 153 152 144
4 151 143 188 187
4 150 142 143 151
4 149 141 142 150
4 141 149 148 140
4 140 148 147 139
4 139 147 146 138
4 138 146 145 137
4 137 145 144 136
4 12 135 190 189
4 13 134 135 12
4 14 133 134 13
4 133 14 29 132
4 132 29 22 131
4 131 22 61 130
4 130 61 36 129
4 129 36 77 128
4 135 127 191 190
4 134 126 127 135
4 133 125 126 134
4 125 133 132 124
4 124 132 131 123
4 123 131 130 122
4 122 130 129 121
4 121 129 128 120
4 127 119 192 191
4 126 118 119 127
4 125 117 118 126
4 117 125 124 116
4 116 124 123 115
4 115 123 122 114
4 114 122 121 113
4 113 121 120 112
4 119 111 193 192
4 118 110 111 119
4 117 109 110 118
4 109 117 116 108
4 108 116 115 107
4 107 115 114 106
4 106 114 113 105
4 105 113 112 104
4 88 103 196 195
4 89 102 103 88
4 90 101 102 89
4 101 90 91 100
4 100 91 92 99
4 99 92 93 98
4 98 93 94 97
4 97 94 95 96
4 86 76 97 96
4 75 98 97 76
4 74 99 98 75
4 73 100 99 74
4 72 101 100 73
4 101 72 71 102
4 102 71 70 103
4 103 70 197 196
4 93 60 35 94
4 48 42 68 69
4 42 54 67 68
4 54 41 66 67
4 40 65 66 41
4 39 64 170 169
4 38 63 64 39
4 37 62 162 161
4 36 61 138 137
4 35 60 106 105
4 47 59 178 177
4 46 58 59 47
4 45 57 58 46
4 44 56 57 45
4 43 55 56 44
4 67 55 43 68
4 83 54 42 84
4 53 47 177 176
4 52 46 47 53
4 51 45 46 52
4 50 44 45 51
4 49 43 44 50
4 68 43 49 69
4 84 42 48 85
4 94 35 87 95
4 82 41 54 83
4 81 40 41 82
4 80 39 169 168
4 79 38 39 80
4 78 37 161 160
4 77 36 137 136
4 87 35 105 104
4 55 27 34 56
4 26 33 34 27
4 25 32 172 171
4 24 31 32 25
4 23 30 164 163
4 22 29 140 139
4 21 28 108 107
4 91 28 21 92
4 66 27 55 67
4 65 26 27 66
4 64 25 171 170
4 63 24 25 64
4 62 23 163 162
4 61 22 139 138
4 60 21 107 106
4 92 21 60 93
4 90 20 28 91
4 20 90 89 19
4 19 89 88 18
4 18 88 195 194
4 167 17 185 184
4 166 16 17 167
4 165 15 16 166
4 30 15 165 164
4 28 20 109 108
4 109 20 19 110
4 110 19 18 111
4 111 18 194 193
4 9 0 1 11
4 11 1 2 10
4 10 2 183 182
4 31 0 9 32
4 59 8 179 178
4 58 7 8 59
4 57 6 7 58
4 56 34 6 57
4 8 5 180 179
4 7 4 5 8
4 6 3 4 7
4 33 3 6 34
4 175 10 182 181
4 174 11 10 175
4 173 9 11 174
4 32 9 173 172
4 29 14 141 140
4 143 12 189 188
4 142 13 12 143
4 141 14 13 142
4 413 412 258 210
4 412 411 226 258
4 411 410 230 226
4 410 409 206 230
4 409 408 254 206
4 408 407 234 254
4 407 406 238 234
4 406 405 242 238
4 405 404 246 242
4 404 403 250 246
4 403 402 205 250
4 402 401 301 205
4 401 400 297 301
4 400 399 262 297
4 399 398 290 262
4 398 397 286 290
4 397 396 282 286
4 396 395 278 282
4 395 394 204 278
4 394 393 274 204
4 393 392 270 274
4 392 391 266 270
4 391 390 214 266
4 390 389 302 214
4 389 388 222 302
4 388 387 218 222
4 386 385 259 211
4 385 384 227 259
4 384 383 231 227
4 383 382 203 231
4 382 381 255 203
4 381 380 235 255
4 380 379 239 235
4 379 378 243 239
4 378 377 247 243
4 377 376 251 247
4 376 375 199 251
4 300 199 375 374
4 296 300 374 373
4 373 372 263 296
4 372 371 291 263
4 371 370 287 291
4 370 369 283 287
4 369 368 279 283
4 368 367 201 279
4 367 366 275 201
4 366 365 271 275
4 365 364 267 271
4 364 363 215 267
4 363 362 303 215
4 362 361 223 303
4 361 360 219 223
4 311 312 225 305
4 305 225 224 304
4 224 361 362 304
4 303 223 388 389
4 302 222 315 316
4 328 329 205 301
4 199 300 401 402
4 374 375 208 299
4 198 298 299 208
4 352 353 298 198
4 327 328 301 297
4 300 296 400 401
4 373 374 299 295
4 298 294 295 299
4 353 354 294 298
4 356 357 289 293
4 293 289 288 292
4 288 370 371 292
4 291 287 397 398
4 286 324 325 290
4 357 358 285 289
4 289 285 284 288
4 284 369 370 288
4 287 283 396 397
4 282 323 324 286
4 358 359 281 285
4 285 281 280 284
4 280 368 369 284
4 283 279 395 396
4 278 322 323 282
4 359 307 200 281
4 281 200 209 280
4 209 367 368 280
4 279 201 394 395
4 204 321 322 278
4 306 308 273 277
4 277 273 272 276
4 272 365 366 276
4 275 271 392 393
4 270 319 320 274
4 308 309 269 273
4 273 269 268 272
4 268 364 365 272
4 271 267 391 392
4 266 318 319 270
4 309 310 217 269
4 269 217 216 268
4 216 363 364 268
4 267 215 390 391
4 214 317 318 266
4 355 356 293 265
4 265 293 292 264
4 292 371 372 264
4 263 291 398 399
4 290 325 326 262
4 342 343 229 261
4 261 229 228 260
4 260 228 384 385
4 259 227 411 412
4 258 226 338 339
4 346 347 237 257
4 257 237 236 256
4 236 380 381 256
4 255 235 407 408
4 234 334 335 254
4 351 352 198 253
4 253 198 208 252
4 208 375 376 252
4 251 199 402 403
4 205 329 330 250
4 350 351 253 249
4 249 253 252 248
4 252 376 377 248
4 247 251 403 404
4 250 330 331 246
4 349 350 249 245
4 245 249 248 244
4 248 377 378 244
4 243 247 404 405
4 246 331 332 242
4 348 349 245 241
4 241 245 244 240
4 244 378 379 240
4 239 243 405 406
4 242 332 333 238
4 347 348 241 237
4 237 241 240 236
4 240 379 380 236
4 235 239 406 407
4 238 333 334 234
4 344 345 202 233
4 233 202 207 232
4 232 207 382 383
4 231 203 409 410
4 230 206 336 337
4 343 344 233 229
4 229 233 232 228
4 228 232 383 384
4 227 231 410 411
4 226 230 337 338
4 312 313 221 225
4 225 221 220 224
4 220 360 361 224
4 223 219 387 388
4 218 314 315 222
4 310 311 305 217
4 217 305 304 216
4 304 362 363 216
4 215 303 389 390
4 302 316 317 214
4 341 342 261 213
4 213 261 260 212
4 212 260 385 386
4 211 259 412 413
4 210 258 339 340
4 276 366 367 209
4 264 372 373 295
4 256 381 382 207
4 203 255 408 409
4 296 263 399 400
4 201 275 393 394
4 262 326 327 297
4 294 265 264 295
4 354 355 265 294
4 254 335 336 206
4 202 257 256 207
4 345 346 257 202
4 274 320 321 204
4 307 306 277 200
4 200 277 276 209
4 429 496 495 457
4 430 497 496 429
4 431 499 498 473
4 500 499 431 464
4 432 447 460 459
4 433 448 447 432
4 434 449 476 475
4 461 449 434 462
4 435 438 456 455
4 436 439 438 435
4 437 440 472 471
4 465 440 437 466
4 438 429 457 456
4 439 430 429 438
4 440 431 473 472
4 464 431 440 465
4 441 514 513 453
4 442 515 514 441
4 443 517 516 469
4 518 517 443 468
4 444 432 459 458
4 445 433 432 444
4 446 434 475 474
4 462 434 446 463
4 447 478 477 460
4 448 479 478 447
4 449 481 480 476
4 481 449 461 482
4 450 490 489 454
4 451 491 490 450
4 452 493 492 470
4 494 493 452 467
4 516 515 442 469
4 492 491 451 470
4 472 439 436 471
4 473 430 439 472
4 498 497 430 473
4 475 433 445 474
4 476 448 433 475
4 479 448 476 480
4 415 460 477 414
4 460 415 416 459
4 459 416 417 458
4 495 425 418 457
4 457 418 419 456
4 456 419 420 455
4 489 424 421 454
4 513 428 422 453
4 455 420 423 483
4 484 435 455 483
4 485 436 435 484
4 471 436 485 486
4 487 437 471 486
4 466 437 487 488
4 483 423 424 489
4 490 484 483 489
4 491 485 484 490
4 486 485 491 492
4 493 487 486 492
4 488 487 493 494
4 458 417 425 495
4 496 444 458 495
4 497 445 444 496
4 474 445 497 498
4 499 446 474 498
4 463 446 499 500
4 454 421 426 501
4 502 450 454 501
4 503 451 450 502
4 470 451 503 504
4 505 452 470 504
4 467 452 505 506
4 501 426 427 507
4 508 502 501 507
4 509 503 502 508
4 504 503 509 510
4 511 505 504 510
4 506 505 511 512
4 507 427 428 513
4 514 508 507 513
4 515 509 508 514
4 510 509 515 516
4 517 511 510 516
4 512 511 517 518
0 0 0 0 255 255 255 0 0 0 0 0 255 255 255 0 0.000000 0.000000
