ply
format ascii 1.0
comment File exported by Rhinoceros Version 4.0
element vertex 242
property float x
property float y
property float z
property float nx
property float ny
property float nz
property uchar red
property uchar green
property uchar blue
element face 182
property list uchar uint vertex_index
end_header
0.429416 0.503749 0.000000 0.000000 0.000000 -1.000000 31 24 24
0.575598 0.500788 0.000000 0.000000 0.000000 -1.000000 114 15 15
0.285825 0.506959 0.000000 0.000000 0.000000 -1.000000 255 0 0
0.291971 0.553789 0.000000 0.000000 0.000000 -1.000000 255 0 0
0.435276 0.548956 0.000000 0.000000 0.000000 -1.000000 57 21 21
0.580622 0.546682 0.000000 0.000000 0.000000 -1.000000 182 8 8
0.262461 0.507341 0.000000 0.000000 0.000000 -1.000000 255 0 0
0.269486 0.554451 0.000000 0.000000 0.000000 -1.000000 255 0 0
0.329887 0.506055 0.000000 -0.000000 0.000000 -1.000000 61 21 21
0.335089 0.552336 0.000000 0.000000 0.000000 -1.000000 88 18 18
0.350894 0.505563 0.000000 -0.000000 0.000001 -1.000000 43 23 23
0.356072 0.551561 0.000000 0.000000 0.000000 -1.000000 78 19 19
0.371278 0.505075 0.000000 0.000000 0.000001 -1.000000 51 22 22
0.376390 0.550831 0.000000 0.000000 0.000000 -1.000000 88 18 18
0.391147 0.504602 0.000000 0.000000 0.000000 -1.000000 49 22 22
0.396204 0.550149 0.000000 0.000000 0.000000 -1.000000 93 17 17
0.410614 0.504158 0.000000 0.000000 0.000000 -1.000000 30 24 24
0.415993 0.549509 0.000000 0.000000 0.000000 -1.000000 69 20 20
0.308240 0.506526 0.000000 0.000000 0.000000 -1.000000 139 12 12
0.313733 0.553082 0.000000 0.000000 0.000000 -1.000000 153 11 11
0.481812 0.502695 0.000000 0.000000 0.000000 -1.000000 32 24 24
0.485908 0.548018 0.000000 0.000000 0.000000 -1.000000 58 21 21
0.612307 0.499752 0.000000 0.000000 0.000000 -1.000000 255 0 0
0.618404 0.545869 0.000000 0.000000 0.000000 -1.000000 255 0 0
0.594296 0.500282 0.000000 0.000000 0.000000 -1.000000 215 4 4
0.599813 0.546277 0.000000 0.000000 0.000000 -1.000000 255 0 0
0.556580 0.501243 0.000000 0.000000 0.000000 -1.000000 49 22 22
0.561280 0.547018 0.000000 0.000000 0.000000 -1.000000 111 15 15
0.537513 0.501647 0.000000 0.000000 0.000000 -1.000000 29 24 24
0.542025 0.547300 0.000000 0.000000 0.000000 -1.000000 66 20 20
0.518587 0.502014 0.000000 0.000000 0.000000 -1.000000 30 24 24
0.522972 0.547550 0.000000 0.000000 0.000000 -1.000000 54 21 21
0.499946 0.502359 0.000000 0.000000 0.000000 -1.000000 27 24 24
0.504141 0.547784 0.000000 0.000000 0.000000 -1.000000 54 21 21
0.468761 0.548267 0.000000 0.000000 0.000000 -1.000000 60 21 21
0.464311 0.503031 0.000000 0.000000 0.000000 -1.000000 30 24 24
0.452399 0.548563 0.000000 0.000000 0.000000 -1.000000 59 21 21
0.447119 0.503377 0.000000 0.000000 0.000000 -1.000000 30 24 24
0.614807 0.522813 0.000000 0.000000 0.000000 -1.000000 255 0 0
0.596719 0.523267 0.000000 0.000000 0.000000 -1.000000 222 4 4
0.577965 0.523709 0.000000 0.000000 0.000000 -1.000000 114 15 15
0.558916 0.524104 0.000000 0.000000 0.000000 -1.000000 47 22 22
0.539846 0.524454 0.000000 0.000000 0.000000 -1.000000 26 24 24
0.520925 0.524770 0.000000 0.000000 0.000000 -1.000000 28 24 24
0.502298 0.525067 0.000000 0.000000 0.000000 -1.000000 25 25 25
0.484175 0.525360 0.000000 0.000000 0.000000 -1.000000 28 24 24
0.466687 0.525663 0.000000 0.000000 0.000000 -1.000000 26 24 24
0.449498 0.525998 0.000000 0.000000 0.000000 -1.000000 26 24 24
0.431790 0.526390 0.000000 0.000000 0.000000 -1.000000 29 24 24
0.412968 0.526862 0.000000 0.000000 0.000000 -1.000000 28 24 24
0.393476 0.527395 0.000000 0.000000 0.000000 -1.000000 42 23 23
0.373583 0.527966 0.000000 0.000000 0.000000 -1.000000 43 23 23
0.353190 0.528569 0.000000 0.000000 0.000000 -1.000000 28 24 24
0.332211 0.529186 0.000000 0.000000 0.000000 -1.000000 42 23 23
0.310677 0.529787 0.000000 0.000000 0.000000 -1.000000 114 15 15
0.288524 0.530353 0.000000 0.000000 0.000000 -1.000000 246 1 1
0.265624 0.530879 0.000000 0.000000 0.000000 -1.000000 255 0 0
0.610918 0.476698 0.000000 0.000000 0.000000 -1.000000 255 0 0
0.592556 0.477326 0.000000 0.000000 0.000000 -1.000000 255 0 0
0.573557 0.477929 0.000000 0.000000 0.000000 -1.000000 179 8 8
0.554289 0.478439 0.000000 0.000000 0.000000 -1.000000 122 14 14
0.535043 0.478882 0.000000 0.000000 0.000000 -1.000000 80 19 19
0.515962 0.479284 0.000000 0.000000 0.000000 -1.000000 74 19 19
0.497091 0.479665 0.000000 0.000000 0.000000 -1.000000 81 19 19
0.478812 0.480034 0.000000 0.000000 0.000000 -1.000000 81 19 19
0.461629 0.480394 0.000000 0.000000 0.000000 -1.000000 88 18 18
0.445248 0.480734 0.000000 0.000000 0.000000 -1.000000 82 18 18
0.428143 0.481073 0.000000 0.000000 0.000000 -1.000000 78 19 19
0.408924 0.481420 0.000000 0.000000 0.000000 -1.000000 103 16 16
0.389222 0.481787 0.000000 0.000001 0.000000 -1.000000 127 14 14
0.369487 0.482168 -0.000000 0.000001 0.000001 -1.000000 133 13 13
0.349221 0.482559 -0.000000 -0.000001 0.000001 -1.000000 123 14 14
0.328201 0.482946 0.000000 -0.000001 0.000000 -1.000000 146 12 12
0.306573 0.483306 0.000000 0.000000 0.000000 -1.000000 224 3 3
0.284074 0.483617 0.000000 0.000000 0.000000 -1.000000 255 0 0
0.260124 0.483912 0.000000 0.000000 0.000000 -1.000000 255 0 0
0.583433 0.569732 0.000000 0.000000 0.000000 -1.000000 255 0 0
0.603503 0.569294 0.000000 0.000000 0.000000 -1.000000 255 0 0
0.622961 0.568917 0.000000 0.000000 0.000000 -1.000000 255 0 0
0.642009 0.568564 0.000000 0.000000 0.000000 -1.000000 255 0 0
0.636041 0.545482 0.000000 0.000000 0.000000 -1.000000 255 0 0
0.631794 0.522367 0.000000 0.000000 0.000000 -1.000000 255 0 0
0.629215 0.499232 0.000000 0.000000 0.000000 -1.000000 255 0 0
0.628298 0.476066 0.000000 0.000000 0.000000 -1.000000 255 0 0
0.629116 0.452882 0.000000 0.000000 0.000000 -1.000000 255 0 0
0.610505 0.453653 0.000000 0.000000 0.000000 -1.000000 255 0 0
0.591459 0.454403 0.000000 0.000000 0.000000 -1.000000 255 0 0
0.571782 0.455168 0.000000 0.000000 0.000000 -1.000000 255 0 0
0.551980 0.455709 0.000000 0.000000 0.000000 -1.000000 250 1 1
0.532406 0.456164 0.000000 0.000000 0.000000 -1.000000 242 1 1
0.513129 0.456579 0.000000 0.000000 0.000000 -1.000000 250 1 1
0.493643 0.456986 0.000000 0.000000 0.000000 -1.000000 246 1 1
0.474717 0.457385 0.000000 0.000000 0.000000 -1.000000 255 0 0
0.458142 0.457778 0.000000 0.000000 0.000000 -1.000000 249 1 1
0.444105 0.458096 0.000000 0.000000 0.000000 -1.000000 254 0 0
0.428983 0.458391 0.000000 0.000000 0.000000 -1.000000 248 1 1
0.407717 0.458664 0.000000 0.000000 0.000000 -1.000000 236 2 2
0.387328 0.458959 0.000000 0.000001 -0.000000 -1.000000 254 0 0
0.368229 0.459254 -0.000000 0.000001 -0.000001 -1.000000 255 0 0
0.348301 0.459559 -0.000000 -0.000001 -0.000001 -1.000000 255 0 0
0.327124 0.459867 0.000000 -0.000001 -0.000000 -1.000000 255 0 0
0.305777 0.460135 0.000000 0.000000 0.000000 -1.000000 255 0 0
0.283773 0.460295 0.000000 0.000000 0.000000 -1.000000 255 0 0
0.258600 0.460609 0.000000 0.000000 0.000000 -1.000000 255 0 0
0.232749 0.460758 0.000000 0.000000 0.000000 -1.000000 255 0 0
0.235363 0.484080 0.000000 0.000000 0.000000 -1.000000 255 0 0
0.238272 0.507617 0.000000 0.000000 0.000000 -1.000000 255 0 0
0.242024 0.531373 0.000000 0.000000 0.000000 -1.000000 255 0 0
0.246505 0.555113 0.000000 0.000000 0.000000 -1.000000 255 0 0
0.251179 0.578860 0.000000 0.000000 0.000000 -1.000000 255 0 0
0.273844 0.578026 0.000000 0.000000 0.000000 -1.000000 255 0 0
0.296139 0.577268 0.000000 0.000000 0.000000 -1.000000 255 0 0
0.317196 0.576422 0.000000 0.000000 0.000000 -1.000000 254 0 0
0.338340 0.575516 0.000000 0.000000 0.000000 -1.000000 198 6 6
0.359621 0.574512 0.000000 0.000000 0.000000 -1.000000 193 7 7
0.379698 0.573647 0.000000 0.000000 0.000000 -1.000000 242 1 1
0.398959 0.572865 0.000000 0.000000 0.000000 -1.000000 228 3 3
0.419521 0.572072 0.000000 0.000000 0.000000 -1.000000 209 5 5
0.440926 0.571365 0.000000 0.000000 0.000000 -1.000000 206 5 5
0.456056 0.571034 0.000000 0.000000 0.000000 -1.000000 195 6 6
0.470055 0.570829 0.000000 0.000000 0.000000 -1.000000 199 6 6
0.486551 0.570663 0.000000 0.000000 0.000000 -1.000000 206 5 5
0.505391 0.570506 0.000000 0.000000 0.000000 -1.000000 202 6 6
0.524794 0.570349 0.000000 0.000000 0.000000 -1.000000 204 5 5
0.544008 0.570184 0.000000 0.000000 0.000000 -1.000000 205 5 5
0.563554 0.569990 0.000000 0.000000 0.000000 -1.000000 237 2 2
0.500856 0.275006 0.000000 0.000000 0.000000 -1.000000 48 22 22
0.610156 0.272371 0.000000 0.000000 0.000000 -1.000000 121 14 14
0.535340 0.274080 0.000000 0.000000 0.000000 -1.000000 40 23 23
0.336872 0.273960 0.000000 0.000000 0.000000 -1.000000 40 23 23
0.438180 0.275528 0.000000 0.000000 0.000000 -1.000000 67 20 20
0.321101 0.210027 0.000000 0.000000 0.000000 -1.000000 70 20 20
0.425141 0.214851 0.000000 0.000000 0.000000 -1.000000 80 19 19
0.490080 0.215497 0.000000 0.000000 0.000000 -1.000000 53 22 22
0.526430 0.215042 0.000000 0.000000 0.000000 -1.000000 46 22 22
0.607313 0.212821 0.000000 0.000000 0.000000 -1.000000 135 13 13
0.328948 0.242067 0.000000 0.000000 0.000000 -1.000000 27 24 24
0.431788 0.244743 0.000000 0.000000 0.000000 -1.000000 25 25 25
0.495726 0.244618 0.000000 0.000000 0.000000 -1.000000 26 24 24
0.531331 0.244251 0.000000 0.000000 0.000000 -1.000000 25 25 25
0.609592 0.241990 0.000000 0.000000 0.000000 -1.000000 72 20 20
0.231271 0.204039 0.000000 0.000000 0.000000 -1.000000 204 5 5
0.240966 0.238879 0.000000 0.000000 0.000000 -1.000000 95 17 17
0.251264 0.272985 0.000000 0.000000 0.000000 -1.000000 124 14 14
0.254183 0.205578 0.000000 0.000000 0.000000 -1.000000 109 16 16
0.263134 0.239505 0.000000 0.000000 0.000000 -1.000000 29 24 24
0.272827 0.273227 0.000000 0.000000 0.000000 -1.000000 57 21 21
0.276471 0.207010 0.000000 0.000000 0.000000 -1.000000 65 20 20
0.285039 0.240386 0.000000 0.000000 0.000000 -1.000000 26 25 25
0.294073 0.273346 0.000000 0.000000 0.000000 -1.000000 40 23 23
0.298646 0.208556 0.000000 0.000000 0.000000 -1.000000 64 20 20
0.306806 0.241197 0.000000 0.000000 0.000000 -1.000000 26 25 25
0.315323 0.273643 0.000000 0.000000 0.000000 -1.000000 42 23 23
0.344460 0.211420 0.000000 0.000000 0.000000 -1.000000 49 22 22
0.352045 0.242937 0.000000 0.000000 0.000000 -1.000000 25 25 25
0.359383 0.274369 0.000000 0.000000 0.000000 -1.000000 39 23 23
0.369342 0.212764 0.000000 0.000000 0.000000 -1.000000 43 23 23
0.376625 0.243701 0.000000 0.000000 0.000000 -1.000000 25 25 25
0.383604 0.274890 0.000000 0.000000 0.000000 -1.000000 48 22 22
0.396118 0.213843 0.000000 0.000000 0.000000 -1.000000 59 21 21
0.403181 0.244469 0.000000 0.000000 0.000000 -1.000000 30 24 24
0.409724 0.275175 0.000000 0.000000 0.000000 -1.000000 69 20 20
0.456349 0.215248 0.000000 0.000000 0.000000 -1.000000 66 20 20
0.462678 0.245071 0.000000 0.000000 0.000000 -1.000000 29 24 24
0.468415 0.275133 0.000000 0.000000 0.000000 -1.000000 59 21 21
0.565541 0.214295 0.000000 0.000000 0.000000 -1.000000 43 23 23
0.569236 0.243182 0.000000 0.000000 0.000000 -1.000000 25 25 25
0.571865 0.273472 0.000000 0.000000 0.000000 -1.000000 40 23 23
0.344609 0.305617 0.000000 0.000000 0.000000 -1.000000 255 0 0
0.366211 0.305655 0.000000 0.000000 0.000000 -1.000000 242 1 1
0.324043 0.305726 0.000000 0.000000 0.000000 -1.000000 223 3 3
0.303530 0.306027 0.000000 0.000000 0.000000 -1.000000 202 6 6
0.282706 0.306320 0.000000 0.000000 0.000000 -1.000000 234 2 2
0.261976 0.306844 0.000000 0.000000 0.000000 -1.000000 255 0 0
0.229693 0.273139 0.000000 0.000000 0.000000 -1.000000 231 3 3
0.241444 0.307230 0.000000 0.000000 0.000000 -1.000000 255 0 0
0.217898 0.238037 0.000000 0.000000 0.000000 -1.000000 221 4 4
0.207573 0.202857 0.000000 0.000000 0.000000 -1.000000 255 0 0
0.198795 0.167101 0.000000 0.000000 0.000000 -1.000000 255 0 0
0.222898 0.169184 0.000000 0.000000 0.000000 -1.000000 255 0 0
0.246020 0.171216 0.000000 0.000000 0.000000 -1.000000 255 0 0
0.268650 0.173508 0.000000 0.000000 0.000000 -1.000000 255 0 0
0.290951 0.175735 0.000000 0.000000 0.000000 -1.000000 255 0 0
0.313423 0.177912 0.000000 0.000000 0.000000 -1.000000 255 0 0
0.336760 0.179960 0.000000 0.000000 0.000000 -1.000000 255 0 0
0.361709 0.181884 0.000000 0.000000 0.000000 -1.000000 247 1 1
0.388700 0.183757 0.000000 0.000000 0.000000 -1.000000 255 0 0
0.418026 0.185283 0.000000 0.000000 0.000000 -1.000000 246 1 1
0.449562 0.186509 0.000000 0.000000 0.000000 -1.000000 254 0 0
0.483577 0.187084 0.000000 0.000000 0.000000 -1.000000 240 2 2
0.520608 0.187217 0.000000 0.000000 0.000000 -1.000000 229 3 3
0.560557 0.186626 0.000000 0.000000 0.000000 -1.000000 236 2 2
0.603367 0.185292 0.000000 0.000000 0.000000 -1.000000 255 0 0
0.651801 0.210666 0.000000 0.000000 0.000000 -1.000000 255 0 0
0.649159 0.182982 0.000000 0.000000 0.000000 -1.000000 255 0 0
0.652515 0.240244 0.000000 0.000000 0.000000 -1.000000 255 0 0
0.650722 0.271283 0.000000 0.000000 0.000000 -1.000000 255 0 0
0.609036 0.303733 0.000000 0.000000 0.000000 -1.000000 255 0 0
0.646201 0.303047 0.000000 0.000000 0.000000 -1.000000 255 0 0
0.573531 0.304275 0.000000 0.000000 0.000000 -1.000000 233 2 2
0.538856 0.305109 0.000000 0.000000 0.000000 -1.000000 254 0 0
0.505140 0.305476 0.000000 0.000000 0.000000 -1.000000 254 0 0
0.473811 0.306228 0.000000 0.000000 0.000000 -1.000000 242 1 1
0.443959 0.306269 0.000000 0.000000 0.000000 -1.000000 255 0 0
0.415661 0.306360 0.000000 0.000000 0.000000 -1.000000 255 0 0
0.389787 0.305997 0.000000 0.000000 0.000000 -1.000000 254 0 0
0.362318 0.797550 0.000000 0.000000 0.000000 -1.000000 211 5 5
0.364253 0.881482 0.000000 -0.000000 -0.000000 -1.000000 55 21 21
0.461843 0.790116 0.000000 0.000000 0.000000 -1.000000 235 2 2
0.487938 0.875687 0.000000 0.000000 -0.000000 -1.000000 255 0 0
0.302460 0.802429 0.000000 0.000000 0.000000 -1.000000 188 7 7
0.295072 0.887523 0.000000 0.000000 0.000000 -1.000000 80 19 19
0.331771 0.799973 0.000000 0.000000 0.000000 -1.000000 209 5 5
0.328891 0.884710 0.000000 -0.000000 -0.000000 -1.000000 66 20 20
0.427220 0.793012 0.000000 0.000000 0.000000 -1.000000 166 10 10
0.440978 0.877021 0.000000 -0.000000 -0.000000 -1.000000 107 16 16
0.220798 0.809583 0.000000 0.000000 0.000000 -1.000000 176 8 8
0.205797 0.892761 0.000000 0.000000 0.000000 -1.000000 234 2 2
0.213361 0.850505 0.000000 0.000000 0.000000 -1.000000 99 17 17
0.299371 0.844571 0.000000 0.000000 0.000000 -1.000000 27 24 24
0.331022 0.841991 0.000000 0.000000 0.000000 -1.000000 30 24 24
0.364063 0.839318 0.000000 0.000000 0.000000 -1.000000 31 24 24
0.435923 0.834710 0.000000 0.000000 0.000000 -1.000000 27 24 24
0.476272 0.832472 0.000000 0.000000 0.000000 -1.000000 145 12 12
0.274253 0.805010 0.000000 0.000000 0.000000 -1.000000 143 12 12
0.269384 0.846905 0.000000 0.000000 0.000000 -1.000000 28 24 24
0.262932 0.889795 0.000000 0.000000 0.000000 -1.000000 80 19 19
0.247395 0.807377 0.000000 0.000000 0.000000 -1.000000 143 12 12
0.240803 0.848978 0.000000 0.000000 0.000000 -1.000000 26 24 24
0.233708 0.891528 0.000000 0.000000 0.000000 -1.000000 134 13 13
0.394092 0.795314 0.000000 0.000000 0.000000 -1.000000 191 7 7
0.398775 0.836927 0.000000 0.000000 0.000000 -1.000000 30 24 24
0.401425 0.878826 0.000000 -0.000000 -0.000000 -1.000000 69 20 20
0.194004 0.811153 -0.000000 0.000000 -0.000000 -1.000000 255 0 0
0.185767 0.851404 -0.000000 0.000000 0.000000 -1.000000 255 0 0
0.178644 0.893203 0.000000 0.000000 0.000000 -1.000000 255 0 0
0.165924 0.811693 -0.000000 -0.000000 -0.000000 -1.000000 255 0 0
0.157692 0.851041 -0.000000 -0.000000 0.000000 -1.000000 255 0 0
0.150810 0.892708 0.000000 -0.000000 0.000000 -1.000000 255 0 0
0.136090 0.810148 0.000000 -0.000000 -0.000000 -1.000000 255 0 0
0.128042 0.848846 0.000000 -0.000000 0.000000 -1.000000 255 0 0
0.121959 0.890948 0.000000 -0.000000 0.000000 -1.000000 255 0 0
4 76 77 25 5
4 111 112 19 3
4 120 121 21 34
4 1 24 58 59
4 35 20 64 65
4 2 18 73 74
4 19 54 55 3
4 21 45 46 34
4 25 39 40 5
4 106 6 75 105
4 108 7 56 107
4 109 110 7 108
4 6 2 74 75
4 7 3 55 56
4 110 111 3 7
4 8 10 71 72
4 11 52 53 9
4 113 114 11 9
4 10 12 70 71
4 13 51 52 11
4 114 115 13 11
4 12 14 69 70
4 15 50 51 13
4 115 116 15 13
4 14 16 68 69
4 17 49 50 15
4 116 117 17 15
4 16 0 67 68
4 4 48 49 17
4 117 118 4 17
4 18 8 72 73
4 9 53 54 19
4 112 113 9 19
4 20 32 63 64
4 33 44 45 21
4 121 122 33 21
4 22 82 83 57
4 80 81 38 23
4 78 79 80 23
4 24 22 57 58
4 23 38 39 25
4 77 78 23 25
4 26 1 59 60
4 5 40 41 27
4 125 76 5 27
4 28 26 60 61
4 27 41 42 29
4 124 125 27 29
4 30 28 61 62
4 29 42 43 31
4 123 124 29 31
4 32 30 62 63
4 31 43 44 33
4 122 123 31 33
4 119 120 34 36
4 46 47 36 34
4 37 35 65 66
4 118 119 36 4
4 47 48 4 36
4 0 37 66 67
4 38 81 82 22
4 39 38 22 24
4 40 39 24 1
4 41 40 1 26
4 42 41 26 28
4 43 42 28 30
4 44 43 30 32
4 45 44 32 20
4 46 45 20 35
4 35 37 47 46
4 37 0 48 47
4 49 48 0 16
4 50 49 16 14
4 51 50 14 12
4 52 51 12 10
4 53 52 10 8
4 54 53 8 18
4 55 54 18 2
4 56 55 2 6
4 107 56 6 106
4 57 83 84 85
4 58 57 85 86
4 59 58 86 87
4 60 59 87 88
4 61 60 88 89
4 62 61 89 90
4 63 62 90 91
4 64 63 91 92
4 65 64 92 93
4 66 65 93 94
4 67 66 94 95
4 68 67 95 96
4 69 68 96 97
4 70 69 97 98
4 71 70 98 99
4 72 71 99 100
4 73 72 100 101
4 74 73 101 102
4 75 74 102 103
4 105 75 103 104
4 155 129 168 169
4 136 129 155 154
4 139 128 167 166
4 167 128 200 199
4 140 127 196 195
4 196 127 197 198
4 138 126 128 139
4 128 126 201 200
4 143 174 175 173
4 176 174 143 142
4 137 130 164 163
4 164 130 203 202
4 178 177 141 179
4 183 131 153 184
4 187 132 162 188
4 189 133 134 190
4 190 134 165 191
4 192 135 193 194
4 177 176 142 141
4 131 136 154 153
4 132 137 163 162
4 133 138 139 134
4 134 139 166 165
4 135 140 195 193
4 141 144 180 179
4 142 145 144 141
4 143 146 145 142
4 146 143 173 172
4 144 147 181 180
4 145 148 147 144
4 146 149 148 145
4 149 146 172 171
4 147 150 182 181
4 148 151 150 147
4 149 152 151 148
4 152 149 171 170
4 150 131 183 182
4 151 136 131 150
4 152 129 136 151
4 129 152 170 168
4 153 156 185 184
4 154 157 156 153
4 155 158 157 154
4 158 155 169 205
4 156 159 186 185
4 157 160 159 156
4 158 161 160 157
4 161 158 205 204
4 159 132 187 186
4 160 137 132 159
4 161 130 137 160
4 130 161 204 203
4 162 133 189 188
4 163 138 133 162
4 164 126 138 163
4 126 164 202 201
4 165 135 192 191
4 166 140 135 165
4 167 127 140 166
4 127 167 199 197
4 207 232 231 221
4 211 213 220 219
4 213 207 221 220
4 215 209 223 222
4 217 229 228 218
4 228 227 216 218
4 220 212 210 219
4 221 206 212 220
4 231 230 206 221
4 223 208 214 222
4 219 210 224 225
4 226 211 219 225
4 225 224 227 228
4 229 226 225 228
4 222 214 230 231
4 232 215 222 231
4 218 216 233 234
4 235 217 218 234
4 234 233 236 237
4 238 235 234 237
4 237 236 239 240
4 241 238 237 240
